<mxfile host="www.draw.io" modified="2020-02-27T19:35:20.610Z" agent="Mozilla/5.0 (Windows NT 10.0; Win64; x64) AppleWebKit/537.36 (KHTML, like Gecko) Chrome/78.0.3904.70 Safari/537.36" etag="-Q_4B2egTGSmDOu0DaCf" version="12.7.8" type="github" pages="2">
  <diagram id="e-LRqLRTiXf35YGmx4cd" name="Page-1">
    <mxGraphModel dx="868" dy="482" grid="1" gridSize="10" guides="1" tooltips="1" connect="1" arrows="1" fold="1" page="1" pageScale="1" pageWidth="827" pageHeight="1169" math="0" shadow="0">
      <root>
        <mxCell id="0" />
        <mxCell id="1" parent="0" />
        <mxCell id="YFboItYC-bnIutgZn8XN-3" style="edgeStyle=orthogonalEdgeStyle;rounded=0;orthogonalLoop=1;jettySize=auto;html=1;" edge="1" parent="1" source="8wL47L3Zqj5WroCjasys-1" target="8wL47L3Zqj5WroCjasys-22">
          <mxGeometry relative="1" as="geometry" />
        </mxCell>
        <mxCell id="YFboItYC-bnIutgZn8XN-4" style="edgeStyle=orthogonalEdgeStyle;rounded=0;orthogonalLoop=1;jettySize=auto;html=1;" edge="1" parent="1" source="8wL47L3Zqj5WroCjasys-1" target="8wL47L3Zqj5WroCjasys-30">
          <mxGeometry relative="1" as="geometry" />
        </mxCell>
        <mxCell id="8wL47L3Zqj5WroCjasys-1" value="Citrix" style="rounded=1;whiteSpace=wrap;html=1;gradientColor=#ffa500;fillColor=#ffcd28;strokeColor=#d79b00;fontStyle=1" parent="1" vertex="1">
          <mxGeometry x="330" y="170" width="120" height="60" as="geometry" />
        </mxCell>
        <mxCell id="8wL47L3Zqj5WroCjasys-4" value="Java 8&lt;br&gt;(DEV/QAS/PRD)" style="rounded=1;whiteSpace=wrap;html=1;fillColor=#fa6800;strokeColor=#C73500;fontColor=#ffffff;" parent="1" vertex="1">
          <mxGeometry x="540" y="380" width="120" height="60" as="geometry" />
        </mxCell>
        <mxCell id="8wL47L3Zqj5WroCjasys-8" style="edgeStyle=orthogonalEdgeStyle;rounded=0;orthogonalLoop=1;jettySize=auto;html=1;entryX=0.5;entryY=0;entryDx=0;entryDy=0;" parent="1" source="8wL47L3Zqj5WroCjasys-7" target="8wL47L3Zqj5WroCjasys-1" edge="1">
          <mxGeometry relative="1" as="geometry" />
        </mxCell>
        <mxCell id="YFboItYC-bnIutgZn8XN-1" style="edgeStyle=orthogonalEdgeStyle;rounded=0;orthogonalLoop=1;jettySize=auto;html=1;entryX=0.5;entryY=0;entryDx=0;entryDy=0;" edge="1" parent="1" source="8wL47L3Zqj5WroCjasys-7" target="8wL47L3Zqj5WroCjasys-24">
          <mxGeometry relative="1" as="geometry" />
        </mxCell>
        <mxCell id="YFboItYC-bnIutgZn8XN-2" style="edgeStyle=orthogonalEdgeStyle;rounded=0;orthogonalLoop=1;jettySize=auto;html=1;entryX=0.5;entryY=0;entryDx=0;entryDy=0;" edge="1" parent="1" source="8wL47L3Zqj5WroCjasys-7" target="8wL47L3Zqj5WroCjasys-28">
          <mxGeometry relative="1" as="geometry" />
        </mxCell>
        <mxCell id="8wL47L3Zqj5WroCjasys-7" value="User" style="shape=umlActor;verticalLabelPosition=bottom;labelBackgroundColor=#ffffff;verticalAlign=top;html=1;outlineConnect=0;fontStyle=1" parent="1" vertex="1">
          <mxGeometry x="375" y="44" width="30" height="60" as="geometry" />
        </mxCell>
        <mxCell id="8wL47L3Zqj5WroCjasys-10" value="- JBoss 6.2&lt;br&gt;- Com NewRelic" style="rounded=0;whiteSpace=wrap;html=1;fillColor=#e51400;strokeColor=#B20000;fontColor=#ffffff;" parent="1" vertex="1">
          <mxGeometry x="540" y="314" width="120" height="60" as="geometry" />
        </mxCell>
        <mxCell id="8wL47L3Zqj5WroCjasys-11" value="&lt;ul&gt;&lt;li&gt;Usuários escolhidos para Rollout&lt;/li&gt;&lt;li&gt;Novo ícone no Citrix&lt;/li&gt;&lt;/ul&gt;" style="text;html=1;strokeColor=none;fillColor=none;align=left;verticalAlign=middle;whiteSpace=wrap;rounded=0;fontStyle=1" parent="1" vertex="1">
          <mxGeometry x="460" y="160" width="250" height="30" as="geometry" />
        </mxCell>
        <mxCell id="8wL47L3Zqj5WroCjasys-12" value="- JBoss 1.41&lt;br&gt;- Sem NewRelic" style="rounded=0;whiteSpace=wrap;html=1;fillColor=#6a00ff;strokeColor=#3700CC;fontColor=#ffffff;" parent="1" vertex="1">
          <mxGeometry x="110" y="316" width="120" height="60" as="geometry" />
        </mxCell>
        <mxCell id="8wL47L3Zqj5WroCjasys-22" value="Client&lt;br&gt;Desktop" style="rounded=0;whiteSpace=wrap;html=1;fillColor=#60a917;strokeColor=#2D7600;fontColor=#ffffff;" parent="1" vertex="1">
          <mxGeometry x="110" y="250" width="120" height="60" as="geometry" />
        </mxCell>
        <mxCell id="8wL47L3Zqj5WroCjasys-23" value="Jobs&lt;br&gt;Quartz" style="rounded=0;whiteSpace=wrap;html=1;fillColor=#60a917;strokeColor=#2D7600;fontColor=#ffffff;" parent="1" vertex="1">
          <mxGeometry x="237" y="250" width="50" height="60" as="geometry" />
        </mxCell>
        <mxCell id="8wL47L3Zqj5WroCjasys-24" value="WEB" style="rounded=0;whiteSpace=wrap;html=1;fillColor=#60a917;strokeColor=#2D7600;fontColor=#ffffff;" parent="1" vertex="1">
          <mxGeometry x="53" y="250" width="50" height="60" as="geometry" />
        </mxCell>
        <mxCell id="8wL47L3Zqj5WroCjasys-25" value="Java 6" style="rounded=1;whiteSpace=wrap;html=1;fillColor=#fa6800;strokeColor=#C73500;fontColor=#ffffff;" parent="1" vertex="1">
          <mxGeometry x="110" y="382" width="120" height="60" as="geometry" />
        </mxCell>
        <mxCell id="8wL47L3Zqj5WroCjasys-26" value="Jobs&lt;br&gt;Quartz" style="rounded=0;whiteSpace=wrap;html=1;fillColor=#e51400;strokeColor=#B20000;fontColor=#ffffff;" parent="1" vertex="1">
          <mxGeometry x="484" y="248" width="50" height="60" as="geometry" />
        </mxCell>
        <mxCell id="8wL47L3Zqj5WroCjasys-29" value="" style="edgeStyle=orthogonalEdgeStyle;rounded=0;orthogonalLoop=1;jettySize=auto;html=1;" parent="1" source="8wL47L3Zqj5WroCjasys-27" target="8wL47L3Zqj5WroCjasys-28" edge="1">
          <mxGeometry relative="1" as="geometry" />
        </mxCell>
        <mxCell id="8wL47L3Zqj5WroCjasys-27" value="WEB" style="rounded=0;whiteSpace=wrap;html=1;fillColor=#e51400;strokeColor=#B20000;fontColor=#ffffff;" parent="1" vertex="1">
          <mxGeometry x="666" y="248" width="50" height="60" as="geometry" />
        </mxCell>
        <mxCell id="8wL47L3Zqj5WroCjasys-28" value="Nova&lt;br&gt;URL" style="rounded=0;whiteSpace=wrap;html=1;fillColor=#e51400;strokeColor=#B20000;fontColor=#ffffff;" parent="1" vertex="1">
          <mxGeometry x="744" y="248" width="50" height="60" as="geometry" />
        </mxCell>
        <mxCell id="8wL47L3Zqj5WroCjasys-30" value="Client&lt;br&gt;Desktop" style="rounded=0;whiteSpace=wrap;html=1;fillColor=#e51400;strokeColor=#B20000;fontColor=#ffffff;" parent="1" vertex="1">
          <mxGeometry x="540" y="248" width="120" height="60" as="geometry" />
        </mxCell>
        <mxCell id="YFboItYC-bnIutgZn8XN-5" value="&lt;a href=&quot;https://apps.raizen.com/sicle&quot;&gt;https://apps.raizen.com/sicle&lt;/a&gt;" style="text;html=1;strokeColor=none;fillColor=none;align=center;verticalAlign=middle;whiteSpace=wrap;rounded=0;" vertex="1" parent="1">
          <mxGeometry x="90" y="84" width="170" height="20" as="geometry" />
        </mxCell>
        <mxCell id="YFboItYC-bnIutgZn8XN-6" value="" style="verticalLabelPosition=bottom;verticalAlign=top;html=1;shadow=0;dashed=0;strokeWidth=1;shape=mxgraph.android.switch_off;fillColor=#E6E6E6;align=center;" vertex="1" parent="1">
          <mxGeometry x="464" y="314" width="70" height="20" as="geometry" />
        </mxCell>
        <mxCell id="YFboItYC-bnIutgZn8XN-8" value="" style="verticalLabelPosition=bottom;verticalAlign=top;html=1;shadow=0;dashed=0;strokeWidth=1;shape=mxgraph.android.switch_on;fillColor=#666666;align=center;" vertex="1" parent="1">
          <mxGeometry x="237" y="314" width="80" height="20" as="geometry" />
        </mxCell>
      </root>
    </mxGraphModel>
  </diagram>
  <diagram id="C6Szy_IQ5Rw0MJGKLDC4" name="Page-2">
    <mxGraphModel dx="1240" dy="689" grid="1" gridSize="10" guides="1" tooltips="1" connect="1" arrows="1" fold="1" page="1" pageScale="1" pageWidth="827" pageHeight="1169" math="0" shadow="0">
      <root>
        <mxCell id="kcO47oUieVtZL0AqgXoY-0" />
        <mxCell id="kcO47oUieVtZL0AqgXoY-1" parent="kcO47oUieVtZL0AqgXoY-0" />
        <mxCell id="kcO47oUieVtZL0AqgXoY-4" value="" style="edgeStyle=orthogonalEdgeStyle;rounded=0;orthogonalLoop=1;jettySize=auto;html=1;" edge="1" parent="kcO47oUieVtZL0AqgXoY-1" source="kcO47oUieVtZL0AqgXoY-2" target="kcO47oUieVtZL0AqgXoY-3">
          <mxGeometry relative="1" as="geometry" />
        </mxCell>
        <mxCell id="kcO47oUieVtZL0AqgXoY-2" value="24/12" style="ellipse;whiteSpace=wrap;html=1;aspect=fixed;align=center;fontStyle=1;fontSize=13;" vertex="1" parent="kcO47oUieVtZL0AqgXoY-1">
          <mxGeometry x="30" y="70" width="70" height="70" as="geometry" />
        </mxCell>
        <mxCell id="kcO47oUieVtZL0AqgXoY-12" value="" style="edgeStyle=orthogonalEdgeStyle;rounded=0;orthogonalLoop=1;jettySize=auto;html=1;" edge="1" parent="kcO47oUieVtZL0AqgXoY-1" source="kcO47oUieVtZL0AqgXoY-3" target="kcO47oUieVtZL0AqgXoY-11">
          <mxGeometry relative="1" as="geometry" />
        </mxCell>
        <mxCell id="kcO47oUieVtZL0AqgXoY-3" value="29/01" style="ellipse;whiteSpace=wrap;html=1;aspect=fixed;align=center;fontStyle=1;fontSize=13;" vertex="1" parent="kcO47oUieVtZL0AqgXoY-1">
          <mxGeometry x="360" y="70" width="70" height="70" as="geometry" />
        </mxCell>
        <mxCell id="kcO47oUieVtZL0AqgXoY-21" value="" style="edgeStyle=orthogonalEdgeStyle;rounded=0;orthogonalLoop=1;jettySize=auto;html=1;" edge="1" parent="kcO47oUieVtZL0AqgXoY-1" source="kcO47oUieVtZL0AqgXoY-11" target="kcO47oUieVtZL0AqgXoY-20">
          <mxGeometry relative="1" as="geometry" />
        </mxCell>
        <mxCell id="kcO47oUieVtZL0AqgXoY-11" value="&lt;span style=&quot;font-size: 13px; font-family: calibri, sans-serif;&quot;&gt;07/02&lt;/span&gt;" style="ellipse;whiteSpace=wrap;html=1;aspect=fixed;align=center;fontStyle=1;fontSize=13;" vertex="1" parent="kcO47oUieVtZL0AqgXoY-1">
          <mxGeometry x="510" y="70" width="70" height="70" as="geometry" />
        </mxCell>
        <mxCell id="kcO47oUieVtZL0AqgXoY-27" value="" style="edgeStyle=orthogonalEdgeStyle;rounded=0;orthogonalLoop=1;jettySize=auto;html=1;" edge="1" parent="kcO47oUieVtZL0AqgXoY-1" source="kcO47oUieVtZL0AqgXoY-20" target="kcO47oUieVtZL0AqgXoY-26">
          <mxGeometry relative="1" as="geometry" />
        </mxCell>
        <mxCell id="kcO47oUieVtZL0AqgXoY-20" value="&lt;span style=&quot;font-size: 13px; font-family: calibri, sans-serif;&quot;&gt;11/02&lt;/span&gt;" style="ellipse;whiteSpace=wrap;html=1;aspect=fixed;align=center;fontStyle=1;fontSize=13;" vertex="1" parent="kcO47oUieVtZL0AqgXoY-1">
          <mxGeometry x="660" y="70" width="70" height="70" as="geometry" />
        </mxCell>
        <mxCell id="kcO47oUieVtZL0AqgXoY-31" value="" style="edgeStyle=orthogonalEdgeStyle;rounded=0;orthogonalLoop=1;jettySize=auto;html=1;" edge="1" parent="kcO47oUieVtZL0AqgXoY-1" source="kcO47oUieVtZL0AqgXoY-26" target="kcO47oUieVtZL0AqgXoY-30">
          <mxGeometry relative="1" as="geometry" />
        </mxCell>
        <mxCell id="kcO47oUieVtZL0AqgXoY-26" value="&lt;span style=&quot;font-size: 13px; font-family: calibri, sans-serif;&quot;&gt;21/02&lt;/span&gt;" style="ellipse;whiteSpace=wrap;html=1;aspect=fixed;align=center;fontStyle=1;fontSize=13;" vertex="1" parent="kcO47oUieVtZL0AqgXoY-1">
          <mxGeometry x="810" y="70" width="70" height="70" as="geometry" />
        </mxCell>
        <mxCell id="kcO47oUieVtZL0AqgXoY-35" value="" style="edgeStyle=orthogonalEdgeStyle;rounded=0;orthogonalLoop=1;jettySize=auto;html=1;" edge="1" parent="kcO47oUieVtZL0AqgXoY-1" source="kcO47oUieVtZL0AqgXoY-30" target="kcO47oUieVtZL0AqgXoY-34">
          <mxGeometry relative="1" as="geometry" />
        </mxCell>
        <mxCell id="kcO47oUieVtZL0AqgXoY-30" value="&lt;span style=&quot;font-size: 13px; font-family: calibri, sans-serif;&quot;&gt;26/02&lt;/span&gt;" style="ellipse;whiteSpace=wrap;html=1;aspect=fixed;align=center;fontStyle=1;fontSize=13;" vertex="1" parent="kcO47oUieVtZL0AqgXoY-1">
          <mxGeometry x="960" y="70" width="70" height="70" as="geometry" />
        </mxCell>
        <mxCell id="kcO47oUieVtZL0AqgXoY-34" value="&lt;span style=&quot;font-size: 11.0pt ; font-family: &amp;#34;calibri&amp;#34; , sans-serif&quot;&gt;Ag. Testes&lt;br&gt;&lt;/span&gt;" style="ellipse;whiteSpace=wrap;html=1;aspect=fixed;align=center;fillColor=#fa6800;strokeColor=#C73500;fontColor=#ffffff;" vertex="1" parent="kcO47oUieVtZL0AqgXoY-1">
          <mxGeometry x="1110" y="70" width="70" height="70" as="geometry" />
        </mxCell>
        <mxCell id="kcO47oUieVtZL0AqgXoY-10" style="edgeStyle=orthogonalEdgeStyle;rounded=0;orthogonalLoop=1;jettySize=auto;html=1;" edge="1" parent="kcO47oUieVtZL0AqgXoY-1" target="kcO47oUieVtZL0AqgXoY-3">
          <mxGeometry relative="1" as="geometry">
            <mxPoint x="395" y="190" as="sourcePoint" />
          </mxGeometry>
        </mxCell>
        <mxCell id="kcO47oUieVtZL0AqgXoY-9" value="Liberação dos testes para a Victoria" style="text;html=1;strokeColor=none;fillColor=none;align=center;verticalAlign=middle;whiteSpace=wrap;rounded=0;" vertex="1" parent="kcO47oUieVtZL0AqgXoY-1">
          <mxGeometry x="345" y="208.5" width="100" height="20" as="geometry" />
        </mxCell>
        <mxCell id="kcO47oUieVtZL0AqgXoY-19" style="edgeStyle=orthogonalEdgeStyle;rounded=0;orthogonalLoop=1;jettySize=auto;html=1;entryX=0.5;entryY=1;entryDx=0;entryDy=0;" edge="1" parent="kcO47oUieVtZL0AqgXoY-1" target="kcO47oUieVtZL0AqgXoY-11">
          <mxGeometry relative="1" as="geometry">
            <mxPoint x="545" y="190" as="sourcePoint" />
          </mxGeometry>
        </mxCell>
        <mxCell id="kcO47oUieVtZL0AqgXoY-13" value="&lt;span style=&quot;font-family: &amp;#34;calibri&amp;#34; , sans-serif&quot;&gt;Primeira versão com&lt;br&gt;as changes entregues no dia 06/02.&lt;/span&gt;" style="text;html=1;strokeColor=none;fillColor=none;align=center;verticalAlign=middle;whiteSpace=wrap;rounded=0;" vertex="1" parent="kcO47oUieVtZL0AqgXoY-1">
          <mxGeometry x="473.75" y="198" width="142.5" height="41" as="geometry" />
        </mxCell>
        <mxCell id="kcO47oUieVtZL0AqgXoY-23" style="edgeStyle=orthogonalEdgeStyle;rounded=0;orthogonalLoop=1;jettySize=auto;html=1;entryX=0.5;entryY=1;entryDx=0;entryDy=0;" edge="1" parent="kcO47oUieVtZL0AqgXoY-1" target="kcO47oUieVtZL0AqgXoY-20">
          <mxGeometry relative="1" as="geometry">
            <mxPoint x="695" y="190" as="sourcePoint" />
          </mxGeometry>
        </mxCell>
        <mxCell id="kcO47oUieVtZL0AqgXoY-25" value="&lt;span style=&quot;font-family: &amp;#34;calibri&amp;#34; , sans-serif&quot;&gt;Correções de&lt;br&gt;problemas encontrado na homologação.&lt;/span&gt;" style="text;html=1;strokeColor=none;fillColor=none;align=center;verticalAlign=middle;whiteSpace=wrap;rounded=0;" vertex="1" parent="kcO47oUieVtZL0AqgXoY-1">
          <mxGeometry x="623.75" y="198" width="142.5" height="41" as="geometry" />
        </mxCell>
        <mxCell id="kcO47oUieVtZL0AqgXoY-28" value="&lt;font face=&quot;calibri, sans-serif&quot; style=&quot;font-size: 12px&quot;&gt;Correção de problemas encontrados por TI&lt;/font&gt;" style="text;html=1;strokeColor=none;fillColor=none;align=center;verticalAlign=middle;whiteSpace=wrap;rounded=0;" vertex="1" parent="kcO47oUieVtZL0AqgXoY-1">
          <mxGeometry x="773.75" y="190" width="142.5" height="41" as="geometry" />
        </mxCell>
        <mxCell id="kcO47oUieVtZL0AqgXoY-29" style="edgeStyle=orthogonalEdgeStyle;rounded=0;orthogonalLoop=1;jettySize=auto;html=1;entryX=0.5;entryY=1;entryDx=0;entryDy=0;" edge="1" parent="kcO47oUieVtZL0AqgXoY-1">
          <mxGeometry relative="1" as="geometry">
            <mxPoint x="844.71" y="190" as="sourcePoint" />
            <mxPoint x="844.71" y="140" as="targetPoint" />
          </mxGeometry>
        </mxCell>
        <mxCell id="kcO47oUieVtZL0AqgXoY-32" value="&lt;font face=&quot;calibri, sans-serif&quot; style=&quot;font-size: 12px&quot;&gt;Nova versão disponibilizada&lt;/font&gt;" style="text;html=1;strokeColor=none;fillColor=none;align=center;verticalAlign=middle;whiteSpace=wrap;rounded=0;" vertex="1" parent="kcO47oUieVtZL0AqgXoY-1">
          <mxGeometry x="923.75" y="190" width="142.5" height="41" as="geometry" />
        </mxCell>
        <mxCell id="kcO47oUieVtZL0AqgXoY-33" style="edgeStyle=orthogonalEdgeStyle;rounded=0;orthogonalLoop=1;jettySize=auto;html=1;entryX=0.5;entryY=1;entryDx=0;entryDy=0;" edge="1" parent="kcO47oUieVtZL0AqgXoY-1">
          <mxGeometry relative="1" as="geometry">
            <mxPoint x="994.58" y="190" as="sourcePoint" />
            <mxPoint x="994.58" y="140" as="targetPoint" />
          </mxGeometry>
        </mxCell>
        <mxCell id="kcO47oUieVtZL0AqgXoY-36" value="Liberação dos testes para a Victoria" style="text;html=1;strokeColor=none;fillColor=none;align=center;verticalAlign=middle;whiteSpace=wrap;rounded=0;" vertex="1" parent="kcO47oUieVtZL0AqgXoY-1">
          <mxGeometry x="15" y="208.5" width="100" height="20" as="geometry" />
        </mxCell>
        <mxCell id="kcO47oUieVtZL0AqgXoY-38" style="edgeStyle=orthogonalEdgeStyle;rounded=0;orthogonalLoop=1;jettySize=auto;html=1;" edge="1" parent="kcO47oUieVtZL0AqgXoY-1">
          <mxGeometry relative="1" as="geometry">
            <mxPoint x="64.41000000000003" y="189.9999999999999" as="sourcePoint" />
            <mxPoint x="64.41000000000003" y="139.9999999999999" as="targetPoint" />
          </mxGeometry>
        </mxCell>
      </root>
    </mxGraphModel>
  </diagram>
</mxfile>
